ply
format ascii 1.0
element vertex 598
property float x
property float y
property float z
property uchar red
property uchar green
property uchar blue
end_header
1.464862 0.313344 0.0 128 128 128
1.480521 0.326056 0.0 0 0 255
1.480508 0.335293 0.0 0 0 255
1.482351 0.345137 0.0 0 0 255
1.486007 0.355763 0.0 0 0 255
1.485773 0.365210 0.0 0 0 255
1.485479 0.374668 0.0 0 0 255
1.484622 0.401672 0.0 0 0 255
1.640871 1.212081 0.0 128 128 128
1.640043 1.226606 0.0 128 128 128
7.246475 5.655215 0.0 128 128 128
7.237849 5.718017 0.0 128 128 128
7.226501 5.783703 0.0 0 0 255
7.210640 5.841666 0.0 0 0 255
7.218531 5.920617 0.0 0 0 255
7.220140 5.994084 0.0 0 0 255
7.189925 6.042735 0.0 0 0 255
7.176502 6.108158 0.0 0 0 255
7.181900 6.187949 0.0 0 0 255
7.193224 6.272596 0.0 0 0 255
7.233184 6.384744 0.0 0 0 255
7.272037 6.497614 0.0 0 0 255
7.286687 6.589019 0.0 0 0 255
7.315651 6.699825 0.0 0 0 255
7.322634 6.786699 0.0 0 0 255
7.316512 6.863649 0.0 0 0 255
7.327799 6.956593 0.0 0 0 255
7.337572 7.050603 0.0 0 0 255
7.329943 7.127560 0.0 0 0 255
7.318902 7.207472 0.0 128 128 128
7.326927 7.301676 0.0 0 0 255
7.327746 7.391251 0.0 0 0 255
7.310955 7.463956 0.0 0 0 255
7.305417 7.547510 0.0 0 0 255
7.301725 7.639858 0.0 0 0 255
7.289138 7.718025 0.0 128 128 128
7.280602 7.802847 0.0 128 128 128
7.261203 7.875397 0.0 0 0 255
7.240435 7.948686 0.0 0 0 255
7.212169 8.017436 0.0 0 0 255
7.200808 8.102714 0.0 0 0 255
7.173628 8.169422 0.0 128 128 128
7.181828 8.279067 0.0 128 128 128
7.220182 8.425568 0.0 0 0 255
7.229541 8.543688 0.0 0 0 255
7.254776 8.679261 0.0 0 0 255
7.299841 8.839435 0.0 128 128 128
7.337334 8.994954 0.0 0 0 255
7.359030 9.131848 0.0 128 128 128
7.388446 9.282530 0.0 0 0 255
7.389765 9.403881 0.0 0 0 255
7.376970 9.505227 0.0 0 0 255
7.392435 9.644844 0.0 0 0 255
7.397744 9.771536 0.0 0 0 255
1.473059 2.024874 0.0 255 0 0
1.444465 2.010994 0.0 255 0 0
1.418610 2.004865 0.0 255 0 0
1.397502 2.000147 0.0 255 0 0
1.374039 1.992088 0.0 255 0 0
1.353170 1.986994 0.0 255 0 0
1.334449 1.985173 0.0 255 0 0
1.317628 1.986784 0.0 255 0 0
1.299035 1.984664 0.0 255 0 0
1.282682 1.985755 0.0 255 0 0
1.266554 1.986599 0.0 255 0 0
1.250274 1.987440 0.0 255 0 0
1.232109 1.984642 0.0 255 0 0
1.217436 1.988988 0.0 255 0 0
1.203526 1.992764 0.0 255 0 0
1.191467 1.999998 0.0 255 0 0
1.177338 2.003710 0.0 255 0 0
1.163400 2.007212 0.0 255 0 0
1.150677 2.014533 0.0 255 0 0
1.138682 2.021337 0.0 255 0 0
1.126454 2.028177 0.0 255 0 0
1.116299 2.038345 0.0 255 0 0
1.105866 2.048571 0.0 255 0 0
1.094959 2.058954 0.0 255 0 0
1.086215 2.072616 0.0 255 0 0
1.075711 2.082590 0.0 255 0 0
1.064925 2.092615 0.0 255 0 0
1.055854 2.106160 0.0 255 0 0
1.050401 2.126745 0.0 255 0 0
1.042166 2.144142 0.0 255 0 0
1.032860 2.157513 0.0 255 0 0
1.023219 2.170950 0.0 255 0 0
1.015347 2.187879 0.0 255 0 0
1.010426 2.212162 0.0 255 0 0
1.003176 2.233012 0.0 255 0 0
1.001755 2.259927 0.0 255 0 0
0.989906 2.269507 0.0 255 0 0
0.973947 2.272050 0.0 128 128 128
7.197936 18.196053 0.0 128 128 128
7.105309 18.283929 0.0 128 128 128
6.942110 18.534572 0.0 128 128 128
1.646144 9.579593 0.0 128 128 128
1.577397 9.518179 0.0 128 128 128
1.519873 9.527533 0.0 128 128 128
1.464423 9.544307 0.0 128 128 128
1.406760 9.552977 0.0 128 128 128
1.349947 9.561170 0.0 128 128 128
1.290026 9.553294 0.0 128 128 128
1.231290 9.552976 0.0 128 128 128
1.182283 9.623649 0.0 128 128 128
1.673758 16.845050 0.0 128 128 128
1.566061 16.791127 0.0 128 128 128
1.463435 16.768261 0.0 128 128 128
1.157672 16.744027 0.0 128 128 128
1.184446 23.201787 0.0 128 128 128
-5.481598 24.022524 0.0 128 128 128
-5.770966 23.872360 0.0 128 128 128
-5.585606 17.111429 0.0 128 128 128
-5.722614 17.184185 0.0 128 128 128
-5.888044 17.331109 0.0 128 128 128
-6.159900 17.117374 0.0 128 128 128
-5.731831 9.854244 0.0 128 128 128
-5.754675 9.757423 0.0 128 128 128
-5.815376 9.721367 0.0 128 128 128
-5.861531 9.665551 0.0 128 128 128
-5.918885 9.630536 0.0 128 128 128
-5.951571 9.553865 0.0 128 128 128
-6.021070 9.538612 0.0 128 128 128
-6.275445 9.555596 0.0 128 128 128
-11.164009 8.553420 0.0 0 0 255
-11.145297 8.432730 0.0 0 0 255
-11.301935 8.235200 0.0 0 0 255
-11.305235 8.135160 0.0 0 0 255
-11.236767 7.983341 0.0 0 0 255
-11.244731 7.888835 0.0 0 0 255
-11.192792 7.555092 0.0 0 0 255
-11.131702 7.416374 0.0 128 128 128
-11.320430 7.347781 0.0 0 0 255
-11.134879 7.133627 0.0 128 128 128
-11.265675 7.121809 0.0 0 0 255
-11.349216 7.079031 0.0 0 0 255
-11.372661 6.995605 0.0 0 0 255
-11.304682 6.768393 0.0 0 0 255
-11.310906 6.679663 0.0 0 0 255
-11.112679 6.384217 0.0 128 128 128
-11.220647 6.356405 0.0 0 0 255
-11.251240 6.285709 0.0 0 0 255
-11.253967 6.198333 0.0 0 0 255
-11.269523 6.119871 0.0 0 0 255
-11.370352 5.999320 0.0 0 0 255
-11.058584 5.749696 0.0 128 128 128
-11.021913 5.646316 0.0 128 128 128
-11.026707 5.566295 0.0 128 128 128
-11.110272 5.524520 0.0 128 128 128
-11.157285 5.465415 0.0 128 128 128
-11.240525 5.422269 0.0 0 0 255
-11.250881 5.345055 0.0 0 0 255
-11.246730 5.260050 0.0 0 0 255
-11.263764 5.185327 0.0 0 0 255
-5.945263 2.637397 0.0 255 0 0
-5.968164 2.605219 0.0 128 128 128
-5.961739 2.559652 0.0 128 128 128
-5.947370 2.511717 0.0 255 0 0
-5.940269 2.466542 0.0 255 0 0
-5.933300 2.420417 0.0 255 0 0
-5.947812 2.384532 0.0 255 0 0
-5.969551 2.351493 0.0 255 0 0
-5.983420 2.315975 0.0 255 0 0
-6.004778 2.282633 0.0 255 0 0
-6.040726 2.255291 0.0 255 0 0
-6.069258 2.224277 0.0 255 0 0
-6.089901 2.190866 0.0 255 0 0
-6.133199 2.164690 0.0 255 0 0
-6.214202 2.151156 0.0 255 0 0
-11.487872 3.837881 0.0 128 128 128
-11.434816 3.743528 0.0 0 0 255
-11.426743 3.664634 0.0 0 0 255
-11.455958 3.599040 0.0 128 128 128
-11.431610 3.515665 0.0 0 0 255
-11.352716 3.417687 0.0 0 0 255
-11.342456 3.340009 0.0 0 0 255
-11.401493 3.280312 0.0 0 0 255
-11.428796 3.213566 0.0 0 0 255
-11.432269 3.141331 0.0 0 0 255
-11.443309 3.070143 0.0 0 0 255
-11.353298 2.972595 0.0 0 0 255
-11.301004 2.887249 0.0 0 0 255
-11.294950 2.813132 0.0 0 0 255
-11.319247 2.747826 0.0 0 0 255
-11.366776 2.686783 0.0 0 0 255
-11.296788 2.599431 0.0 0 0 255
-11.234214 2.513677 0.0 128 128 128
-11.405541 2.479763 0.0 0 0 255
-11.451385 2.418551 0.0 0 0 255
-11.340391 2.323640 0.0 0 0 255
-11.330464 2.251508 0.0 0 0 255
-11.351714 2.184537 0.0 0 0 255
-11.341104 2.111553 0.0 0 0 255
-11.369203 2.046933 0.0 0 0 255
-11.381360 1.978219 0.0 0 0 255
-11.353466 1.903932 0.0 0 0 255
-11.372657 1.836591 0.0 0 0 255
-11.375469 1.767725 0.0 0 0 255
-11.346377 1.693075 0.0 0 0 255
-11.483105 1.642652 0.0 128 128 128
-11.524371 1.578704 0.0 128 128 128
-11.422643 1.494531 0.0 128 128 128
-11.423387 1.425612 0.0 0 0 255
-11.415899 1.354717 0.0 0 0 255
-11.423751 1.286830 0.0 0 0 255
-11.439271 1.218649 0.0 128 128 128
-11.382742 1.143152 0.0 0 0 255
-11.341548 1.070954 0.0 0 0 255
-11.372006 1.001262 0.0 0 0 255
-11.409649 0.936280 0.0 0 0 255
-11.399142 0.866130 0.0 0 0 255
-11.380148 0.796676 0.0 0 0 255
-11.488529 0.596418 0.0 0 0 255
-11.443973 0.524812 0.0 0 0 255
-11.326985 0.452008 0.0 0 0 255
-11.337504 0.383849 0.0 0 0 255
-11.475533 0.320240 0.0 0 0 255
-11.493254 0.251265 0.0 0 0 255
-11.478564 0.181602 0.0 0 0 255
-11.455441 0.113127 0.0 0 0 255
-11.375916 0.043621 0.0 0 0 255
-11.375975 -0.023985 0.0 0 0 255
-11.351623 -0.092506 0.0 0 0 255
-11.390869 -0.160548 0.0 0 0 255
-11.469608 -0.234246 0.0 0 0 255
-11.460016 -0.302213 0.0 0 0 255
-11.449985 -0.371173 0.0 0 0 255
-11.471517 -0.441253 0.0 0 0 255
-11.420739 -0.507288 0.0 0 0 255
-11.425456 -0.576669 0.0 0 0 255
-11.453776 -0.646382 0.0 0 0 255
-11.417726 -0.713541 0.0 0 0 255
-11.397320 -0.780309 0.0 0 0 255
-11.400376 -0.849735 0.0 0 0 255
-11.426932 -0.921156 0.0 0 0 255
-11.461107 -0.992498 0.0 128 128 128
-11.431005 -1.059497 0.0 0 0 255
-11.424179 -1.130720 0.0 0 0 255
-11.441011 -1.202196 0.0 0 0 255
-11.401858 -1.266653 0.0 0 0 255
-11.354271 -1.330847 0.0 0 0 255
-11.385724 -1.404305 0.0 128 128 128
-11.448582 -1.481182 0.0 0 0 255
-11.439426 -1.550310 0.0 0 0 255
-11.430008 -1.618285 0.0 0 0 255
-11.396285 -1.683772 0.0 0 0 255
-11.393981 -1.752704 0.0 0 0 255
-11.422684 -1.827818 0.0 0 0 255
-11.348301 -1.886290 0.0 0 0 255
-11.415728 -1.967284 0.0 0 0 255
-11.474515 -2.048861 0.0 0 0 255
-11.469389 -2.121792 0.0 0 0 255
-11.479940 -2.195523 0.0 0 0 255
-11.450989 -2.260628 0.0 0 0 255
-11.444963 -2.331354 0.0 0 0 255
-11.477883 -2.409188 0.0 0 0 255
-11.486579 -2.483549 0.0 0 0 255
-11.494794 -2.558103 0.0 0 0 255
-11.604160 -2.654937 0.0 128 128 128
-11.611278 -2.730457 0.0 128 128 128
-11.571512 -2.793800 0.0 128 128 128
-11.585485 -2.871346 0.0 128 128 128
-11.552705 -2.936224 0.0 0 0 255
-11.527021 -3.003918 0.0 0 0 255
-11.531710 -3.231756 0.0 0 0 255
-11.558436 -3.313477 0.0 0 0 255
-11.553564 -3.387738 0.0 0 0 255
-11.556217 -3.463228 0.0 0 0 255
-11.550385 -3.537656 0.0 0 0 255
-11.536440 -3.609752 0.0 0 0 255
-11.530019 -3.683135 0.0 128 128 128
-11.515172 -3.755176 0.0 0 0 255
-11.523010 -3.833664 0.0 0 0 255
-11.560246 -3.923770 0.0 0 0 255
-11.551844 -3.997633 0.0 0 0 255
-11.436956 -4.035397 0.0 0 0 255
-11.404843 -4.101702 0.0 0 0 255
-11.491729 -4.213997 0.0 0 0 255
-11.473558 -4.286136 0.0 0 0 255
-11.485263 -4.368486 0.0 0 0 255
-11.486160 -4.433223 0.0 0 0 255
-11.372548 -4.482334 0.0 128 128 128
-11.397240 -4.571797 0.0 0 0 255
-11.419207 -4.645568 0.0 128 128 128
-11.334248 -4.704977 0.0 0 0 255
-11.320361 -4.779579 0.0 0 0 255
-11.317528 -4.847566 0.0 0 0 255
-11.332522 -4.933919 0.0 0 0 255
-11.265933 -4.986095 0.0 128 128 128
-11.214206 -5.043134 0.0 128 128 128
-11.380005 -5.200542 0.0 128 128 128
-11.399175 -5.292772 0.0 0 0 255
-11.237265 -5.299023 0.0 128 128 128
-11.320493 -5.422098 0.0 0 0 255
-11.309654 -5.499774 0.0 0 0 255
-11.132762 -5.497150 0.0 128 128 128
-11.672158 -5.938514 0.0 128 128 128
-11.657398 -6.019924 0.0 128 128 128
-11.647992 -6.107322 0.0 128 128 128
-11.497898 -6.117428 0.0 0 0 255
-11.316430 -6.283752 0.0 0 0 255
-2.261290 -1.315304 0.0 128 128 128
-2.253303 -1.328940 0.0 128 128 128
-2.238497 -1.338206 0.0 128 128 128
-2.222300 -1.364934 0.0 128 128 128
-11.542736 -7.548809 0.0 0 0 255
-11.576806 -7.872582 0.0 128 128 128
-11.464148 -8.105240 0.0 0 0 255
-6.467780 -4.829597 0.0 128 128 128
-6.343241 -4.795581 0.0 128 128 128
-6.288748 -4.814358 0.0 128 128 128
-6.239655 -4.838752 0.0 128 128 128
-6.197737 -4.866462 0.0 128 128 128
-6.168698 -4.903219 0.0 128 128 128
-6.114038 -4.920330 0.0 128 128 128
-6.084205 -4.957172 0.0 128 128 128
-6.073154 -5.008512 0.0 128 128 128
-6.061212 -5.060487 0.0 128 128 128
-6.037133 -5.101592 0.0 128 128 128
-6.024453 -5.153557 0.0 128 128 128
-12.618709 -19.696544 0.0 0 0 255
-12.328509 -19.501924 0.0 128 128 128
-12.176611 -19.521737 0.0 128 128 128
-11.876536 -19.836388 0.0 0 0 255
-11.740259 -19.880192 0.0 0 0 255
-11.412470 -19.590179 0.0 128 128 128
-11.277986 -19.631012 0.0 128 128 128
-11.261721 -19.879757 0.0 128 128 128
-11.104363 -19.876493 0.0 128 128 128
-10.976376 -19.929191 0.0 128 128 128
-6.550285 -12.246237 0.0 128 128 128
-6.413940 -12.164657 0.0 128 128 128
-6.325588 -12.174783 0.0 128 128 128
-6.296878 -12.297609 0.0 128 128 128
-6.258509 -12.406848 0.0 128 128 128
-6.058200 -12.568075 0.0 128 128 128
-9.260387 -19.814884 0.0 0 0 255
-9.048835 -19.666074 0.0 128 128 128
-8.706475 -19.872436 0.0 0 0 255
-8.255365 -19.474498 0.0 128 128 128
-8.119111 -19.479704 0.0 128 128 128
-7.297412 -18.432004 0.0 128 128 128
-7.209171 -18.535382 0.0 128 128 128
-7.430542 -19.803892 0.0 128 128 128
-7.061709 -19.904438 0.0 0 0 255
-6.841434 -19.659620 0.0 128 128 128
-6.693433 -19.609089 0.0 128 128 128
-6.590127 -19.694671 0.0 128 128 128
-6.512829 -19.855122 0.0 128 128 128
-6.358510 -19.787471 0.0 128 128 128
-6.235095 -19.826705 0.0 128 128 128
-6.091679 -19.787548 0.0 128 128 128
-5.932393 -19.685536 0.0 128 128 128
-5.831504 -19.782389 0.0 128 128 128
-5.760645 -19.986369 0.0 128 128 128
-5.641734 -20.020261 0.0 0 0 255
-5.495217 -19.961418 0.0 0 0 255
-5.359873 -19.931918 0.0 128 128 128
-5.227191 -19.917503 0.0 128 128 128
-5.116637 -19.979224 0.0 0 0 255
-4.988142 -19.978711 0.0 0 0 255
-4.871150 -20.024025 0.0 128 128 128
-4.740962 -20.005921 0.0 0 0 255
-4.612838 -20.003013 0.0 0 0 255
-4.507893 -20.092520 0.0 0 0 255
-4.386441 -20.119384 0.0 128 128 128
-4.221750 -19.942023 0.0 128 128 128
-4.096687 -19.935422 0.0 128 128 128
-3.988730 -20.022564 0.0 0 0 255
-3.857504 -19.983082 0.0 128 128 128
-3.739798 -20.054274 0.0 0 0 255
-3.620518 -20.076151 0.0 128 128 128
-3.490948 -20.050366 0.0 0 0 255
-3.382298 -20.133880 0.0 0 0 255
-3.260652 -20.153938 0.0 0 0 255
-3.133932 -20.141647 0.0 0 0 255
-2.796960 -19.512559 0.0 128 128 128
-2.717945 -19.798309 0.0 128 128 128
-2.633668 -20.084057 0.0 0 0 255
-2.508273 -20.051729 0.0 128 128 128
-2.390919 -20.098286 0.0 0 0 255
-2.283823 -20.239555 0.0 128 128 128
-2.163468 -20.252773 0.0 128 128 128
-2.025057 -20.106278 0.0 0 0 255
-1.905533 -20.117957 0.0 0 0 255
-1.792450 -20.224726 0.0 0 0 255
-1.666920 -20.171241 0.0 128 128 128
-1.542637 -20.149033 0.0 128 128 128
-1.415905 -20.142296 0.0 0 0 255
-1.290107 -20.086613 0.0 128 128 128
-1.173430 -20.173902 0.0 128 128 128
-1.056821 -20.244434 0.0 0 0 255
-0.937464 -20.314381 0.0 128 128 128
-0.819258 -20.383543 0.0 0 0 255
-0.695605 -20.372128 0.0 0 0 255
-0.569837 -20.279996 0.0 0 0 255
-0.445728 -20.123064 0.0 128 128 128
-0.326520 -20.269370 0.0 128 128 128
-0.206672 -20.334950 0.0 0 0 255
-0.083439 -20.239828 0.0 128 128 128
0.037055 -20.335966 0.0 128 128 128
0.160614 -20.431369 0.0 128 128 128
0.282693 -20.334035 0.0 0 0 255
0.402612 -20.284005 0.0 0 0 255
0.524303 -20.249213 0.0 128 128 128
0.647177 -20.325699 0.0 0 0 255
0.771155 -20.353396 0.0 0 0 255
0.769099 -13.698426 0.0 128 128 128
0.847360 -13.621670 0.0 128 128 128
0.932328 -13.656211 0.0 128 128 128
1.014084 -13.658406 0.0 128 128 128
1.097210 -13.660005 0.0 128 128 128
1.268182 -13.725537 0.0 128 128 128
2.120199 -20.289523 0.0 0 0 255
2.247962 -20.324059 0.0 128 128 128
2.370593 -20.326229 0.0 128 128 128
2.491382 -20.295658 0.0 0 0 255
2.614031 -20.296358 0.0 0 0 255
2.746677 -20.311125 0.0 0 0 255
2.849462 -20.167697 0.0 128 128 128
2.961898 -20.086801 0.0 0 0 255
3.095292 -20.147621 0.0 128 128 128
3.220053 -20.160464 0.0 128 128 128
3.349632 -20.187998 0.0 128 128 128
3.499421 -20.341181 0.0 0 0 255
3.610962 -20.256671 0.0 128 128 128
3.705176 -20.060700 0.0 0 0 255
3.844257 -20.132255 0.0 128 128 128
3.976244 -20.171839 0.0 0 0 255
4.110777 -20.210168 0.0 128 128 128
4.245917 -20.247606 0.0 128 128 128
4.359416 -20.190736 0.0 128 128 128
4.443117 -19.992226 0.0 0 0 255
4.561883 -19.965461 0.0 128 128 128
4.713747 -20.045225 0.0 128 128 128
4.821558 -19.970191 0.0 0 0 255
4.953648 -19.987292 0.0 128 128 128
5.103906 -20.081547 0.0 128 128 128
5.233151 -20.081325 0.0 128 128 128
5.325460 -19.941140 0.0 0 0 255
5.443907 -19.909130 0.0 128 128 128
5.576975 -19.922116 0.0 0 0 255
5.718669 -19.948492 0.0 128 128 128
5.870578 -20.021059 0.0 128 128 128
5.994049 -20.001144 0.0 128 128 128
6.091329 -19.888080 0.0 0 0 255
6.201797 -19.820382 0.0 128 128 128
6.319511 -19.783165 0.0 128 128 128
6.483508 -19.881546 0.0 128 128 128
6.561172 -19.721199 0.0 128 128 128
6.675519 -19.648994 0.0 128 128 128
6.813153 -19.669438 0.0 0 0 255
6.899874 -19.537403 0.0 0 0 255
7.059235 -19.616480 0.0 128 128 128
7.155532 -19.513406 0.0 128 128 128
7.250877 -19.409873 0.0 128 128 128
7.417325 -19.501020 0.0 128 128 128
7.558100 -19.515540 0.0 128 128 128
7.886423 -19.644046 0.0 128 128 128
0.942038 -2.071893 0.0 255 0 0
0.937757 -2.029854 0.0 255 0 0
0.938508 -1.994196 0.0 255 0 0
0.939997 -1.966928 0.0 255 0 0
0.943129 -1.943221 0.0 255 0 0
0.947592 -1.923228 0.0 255 0 0
0.955610 -1.910316 0.0 255 0 0
0.963328 -1.897468 0.0 255 0 0
0.969275 -1.880947 0.0 255 0 0
0.976908 -1.867971 0.0 255 0 0
0.982904 -1.851247 0.0 255 0 0
0.992172 -1.841754 0.0 255 0 0
1.001182 -1.832315 0.0 255 0 0
1.010292 -1.822736 0.0 255 0 0
1.017190 -1.809724 0.0 255 0 0
1.026122 -1.800071 0.0 255 0 0
1.034972 -1.790379 0.0 255 0 0
1.043574 -1.780744 0.0 255 0 0
1.054823 -1.774104 0.0 255 0 0
1.065347 -1.767804 0.0 255 0 0
1.073921 -1.757923 0.0 255 0 0
1.084352 -1.751508 0.0 255 0 0
1.097036 -1.748316 0.0 255 0 0
1.107409 -1.741764 0.0 255 0 0
1.120077 -1.738405 0.0 255 0 0
1.134931 -1.738306 0.0 255 0 0
1.147947 -1.734537 0.0 255 0 0
1.160632 -1.730893 0.0 255 0 0
1.175395 -1.730581 0.0 255 0 0
1.190359 -1.730042 0.0 255 0 0
1.202909 -1.726217 0.0 255 0 0
1.215621 -1.722187 0.0 255 0 0
1.228164 -1.718185 0.0 255 0 0
1.243208 -1.717217 0.0 255 0 0
1.258618 -1.715886 0.0 255 0 0
1.276113 -1.717887 0.0 255 0 0
1.293681 -1.719737 0.0 255 0 0
1.311152 -1.721563 0.0 255 0 0
1.333741 -1.729448 0.0 255 0 0
1.356302 -1.737256 0.0 255 0 0
1.385103 -1.755331 0.0 255 0 0
1.438907 -1.778901 0.0 255 0 0
6.960884 -8.025924 0.0 128 128 128
7.009225 -7.983743 0.0 0 0 255
7.003424 -7.882131 0.0 0 0 255
7.005003 -7.784132 0.0 0 0 255
7.018819 -7.706877 0.0 0 0 255
7.000177 -7.593754 0.0 0 0 255
7.001538 -7.505209 0.0 0 0 255
7.002793 -7.416258 0.0 0 0 255
6.985961 -7.310875 0.0 0 0 255
7.084867 -7.147639 0.0 0 0 255
6.867786 -6.604264 0.0 128 128 128
6.872755 -6.529597 0.0 128 128 128
6.870622 -6.450297 0.0 128 128 128
6.897718 -6.397808 0.0 128 128 128
6.913862 -6.333079 0.0 128 128 128
6.922321 -6.264372 0.0 128 128 128
6.960035 -6.222443 0.0 128 128 128
3.882167 -3.374835 0.0 0 0 255
3.896092 -3.346485 0.0 0 0 255
3.897935 -3.307362 0.0 0 0 255
3.900070 -3.267598 0.0 0 0 255
3.901248 -3.228678 0.0 0 0 255
3.895599 -3.185174 0.0 0 0 255
3.889867 -3.141486 0.0 0 0 255
3.883756 -3.097977 0.0 0 0 255
3.883253 -3.059980 0.0 0 0 255
3.895353 -3.031554 0.0 0 0 255
3.885017 -2.979506 0.0 0 0 255
3.914041 -2.927939 0.0 128 128 128
7.087218 -5.135061 0.0 128 128 128
7.092081 -5.073538 0.0 128 128 128
7.063309 -4.989746 0.0 0 0 255
7.060503 -4.924120 0.0 0 0 255
7.069884 -4.868450 0.0 0 0 255
7.040987 -4.783163 0.0 0 0 255
7.029431 -4.714487 0.0 0 0 255
7.037769 -4.658692 0.0 0 0 255
7.052386 -4.607344 0.0 0 0 255
7.025856 -4.530667 0.0 0 0 255
6.994842 -3.980263 0.0 128 128 128
7.102097 -3.985593 0.0 0 0 255
7.105036 -3.931013 0.0 0 0 255
7.100187 -3.873382 0.0 0 0 255
7.123455 -3.830423 0.0 0 0 255
7.131962 -3.780516 0.0 0 0 255
7.141554 -3.727914 0.0 0 0 255
7.142247 -3.674415 0.0 0 0 255
7.142899 -3.620367 0.0 0 0 255
7.143165 -3.566433 0.0 0 0 255
7.135525 -3.509784 0.0 0 0 255
7.120597 -3.449179 0.0 128 128 128
7.112088 -3.393023 0.0 0 0 255
7.132454 -3.350000 0.0 0 0 255
7.116884 -3.288703 0.0 0 0 255
7.078356 -3.219170 0.0 0 0 255
7.083068 -3.169819 0.0 0 0 255
7.079821 -3.117984 0.0 0 0 255
7.076499 -3.065633 0.0 0 0 255
7.072519 -3.014103 0.0 0 0 255
7.053705 -2.955867 0.0 0 0 255
7.041565 -2.901691 0.0 0 0 255
7.059783 -2.857083 0.0 0 0 255
7.061775 -2.809151 0.0 0 0 255
7.048811 -2.754795 0.0 0 0 255
7.050380 -2.706444 0.0 0 0 255
7.043888 -2.656017 0.0 0 0 255
7.044798 -2.607865 0.0 0 0 255
7.052658 -2.563208 0.0 0 0 255
7.052937 -2.515198 0.0 0 0 255
7.053373 -2.465911 0.0 0 0 255
7.060568 -2.420677 0.0 0 0 255
7.067250 -2.376113 0.0 0 0 255
7.073876 -2.330876 0.0 0 0 255
7.080213 -2.285646 0.0 0 0 255
7.086044 -2.241117 0.0 0 0 255
7.084168 -2.193540 0.0 0 0 255
7.097083 -2.151389 0.0 0 0 255
7.109949 -2.108479 0.0 128 128 128
7.122552 -2.065505 0.0 0 0 255
7.127008 -2.020946 0.0 0 0 255
7.123666 -1.973586 0.0 0 0 255
7.127547 -1.929127 0.0 0 0 255
7.139070 -1.886037 0.0 0 0 255
7.150156 -1.843565 0.0 0 0 255
7.145644 -1.796440 0.0 0 0 255
7.148592 -1.751352 0.0 0 0 255
7.159368 -1.706764 0.0 0 0 255
7.153962 -1.659870 0.0 0 0 255
7.155896 -1.615565 0.0 0 0 255
7.165524 -1.572310 0.0 0 0 255
7.174744 -1.529686 0.0 0 0 255
7.191685 -1.487952 0.0 128 128 128
1.552410 -0.283033 0.0 128 128 128
1.534394 -0.270185 0.0 0 0 255
1.524142 -0.259048 0.0 0 0 255
1.521732 -0.249190 0.0 0 0 255
1.513514 -0.237278 0.0 0 0 255
1.514269 -0.218838 0.0 0 0 255
