ply
format ascii 1.0
element vertex 860
property float x
property float y
property float z
property uchar red
property uchar green
property uchar blue
end_header
1.581310 -0.200733 0.0 0 0 255
1.566591 -0.189409 0.0 0 0 255
1.549773 -0.178336 0.0 0 0 255
1.534900 -0.167389 0.0 0 0 255
1.522091 -0.155365 0.0 0 0 255
1.509052 -0.144978 0.0 0 0 255
1.495918 -0.135036 0.0 0 0 255
1.484736 -0.125133 0.0 0 0 255
1.471508 -0.115071 0.0 0 0 255
1.456187 -0.105449 0.0 0 0 255
1.444814 -0.095997 0.0 0 0 255
1.433456 -0.085447 0.0 0 0 255
1.419966 -0.076038 0.0 0 0 255
1.406395 -0.067200 0.0 0 0 255
1.394781 -0.058337 0.0 0 0 255
1.385100 -0.049952 0.0 0 0 255
1.373381 -0.041226 0.0 0 0 255
1.361633 -0.031596 0.0 0 0 255
1.351799 -0.023331 0.0 0 0 255
1.341911 -0.015440 0.0 0 0 255
1.329980 -0.007268 0.0 0 0 255
1.320000 0.000253 0.0 0 0 255
1.311975 0.008177 0.0 0 0 255
1.301902 0.015977 0.0 0 0 255
1.289765 0.024609 0.0 0 0 255
1.277609 0.031608 0.0 0 0 255
1.267400 0.039017 0.0 0 0 255
1.259146 0.046378 0.0 0 0 255
1.250871 0.053160 0.0 0 0 255
1.240539 0.060228 0.0 0 0 255
1.234181 0.067037 0.0 0 0 255
1.225689 0.075301 0.0 0 0 255
1.215266 0.081564 0.0 0 0 255
1.208767 0.088465 0.0 0 0 255
1.200263 0.094787 0.0 0 0 255
1.191707 0.101244 0.0 0 0 255
1.183107 0.107713 0.0 0 0 255
1.174516 0.113633 0.0 0 0 255
1.167840 0.120112 0.0 0 0 255
1.159043 0.127186 0.0 0 0 255
1.152293 0.133494 0.0 0 0 255
1.143578 0.139044 0.0 0 0 255
1.134782 0.144934 0.0 0 0 255
1.127982 0.150665 0.0 0 0 255
1.121124 0.156538 0.0 0 0 255
1.114268 0.162121 0.0 0 0 255
1.105359 0.167649 0.0 0 0 255
1.098266 0.174229 0.0 0 0 255
1.093264 0.180105 0.0 0 0 255
1.086296 0.185380 0.0 0 0 255
1.077278 0.190545 0.0 0 0 255
1.072192 0.196225 0.0 0 0 255
1.065150 0.201276 0.0 0 0 255
1.058026 0.206556 0.0 0 0 255
1.050959 0.211353 0.0 0 0 255
1.045517 0.217988 0.0 0 0 255
1.036423 0.222320 0.0 0 0 255
1.031156 0.227714 0.0 0 0 255
1.024000 0.232217 0.0 0 0 255
1.016735 0.237036 0.0 0 0 255
1.013363 0.242608 0.0 0 0 255
1.011951 0.248434 0.0 0 0 255
1.016250 0.256007 0.0 0 0 255
1.022532 0.263750 0.0 0 0 255
1.028655 0.271967 0.0 0 0 255
1.036968 0.279595 0.0 0 0 255
1.042971 0.287983 0.0 0 0 255
1.050921 0.296695 0.0 0 0 255
1.058747 0.305712 0.0 0 0 255
1.064644 0.314059 0.0 0 0 255
1.072673 0.322138 0.0 0 0 255
1.076443 0.330372 0.0 0 0 255
1.084003 0.339754 0.0 0 0 255
1.089651 0.348421 0.0 0 0 255
1.098934 0.358720 0.0 0 0 255
1.106270 0.368406 0.0 0 0 255
1.113928 0.377016 0.0 0 0 255
1.119192 0.386348 0.0 0 0 255
1.126385 0.396097 0.0 0 0 255
1.135307 0.406834 0.0 0 0 255
1.142223 0.417113 0.0 0 0 255
1.149178 0.427161 0.0 0 0 255
1.158177 0.437345 0.0 0 0 255
1.168753 0.448909 0.0 0 0 255
1.179060 0.461057 0.0 0 0 255
1.185590 0.471755 0.0 0 0 255
1.192126 0.482318 0.0 0 0 255
1.202706 0.493455 0.0 0 0 255
1.210778 0.505333 0.0 0 0 255
1.218749 0.517326 0.0 0 0 255
1.230496 0.530546 0.0 0 0 255
1.240092 0.543588 0.0 0 0 255
1.252041 0.556141 0.0 0 0 255
1.261419 0.569454 0.0 0 0 255
1.270738 0.582777 0.0 0 0 255
1.281869 0.596831 0.0 0 0 255
1.292705 0.611404 0.0 0 0 255
1.305933 0.625494 0.0 0 0 255
1.316582 0.640241 0.0 0 0 255
1.329019 0.655769 0.0 0 0 255
1.339339 0.670951 0.0 0 0 255
1.349589 0.686152 0.0 0 0 255
1.361417 0.702544 0.0 0 0 255
1.375693 0.718452 0.0 0 0 255
1.389212 0.735714 0.0 0 0 255
1.405957 0.755315 0.0 0 0 255
1.418930 0.773365 0.0 0 0 255
1.433714 0.792155 0.0 0 0 255
1.449027 0.809890 0.0 0 0 255
1.451474 0.845945 0.0 128 128 128
0.274392 0.186903 0.0 128 128 128
0.270789 0.186853 0.0 255 0 0
0.267873 0.187545 0.0 255 0 0
0.265919 0.188581 0.0 255 0 0
0.264848 0.190082 0.0 255 0 0
0.264504 0.192267 0.0 255 0 0
0.264367 0.194149 0.0 255 0 0
0.263190 0.195743 0.0 255 0 0
0.261053 0.196927 0.0 255 0 0
0.259083 0.197869 0.0 255 0 0
0.257149 0.198744 0.0 255 0 0
0.256731 0.200910 0.0 255 0 0
0.256317 0.203054 0.0 255 0 0
0.256862 0.205579 0.0 255 0 0
0.255636 0.207102 0.0 255 0 0
0.255214 0.209203 0.0 255 0 0
0.255505 0.211993 0.0 255 0 0
0.255211 0.213907 0.0 255 0 0
0.253935 0.215420 0.0 255 0 0
0.252692 0.216877 0.0 255 0 0
0.249639 0.217351 0.0 255 0 0
0.246883 0.217462 0.0 255 0 0
0.243843 0.217875 0.0 255 0 0
0.241865 0.218581 0.0 255 0 0
0.240540 0.220038 0.0 255 0 0
0.239228 0.221463 0.0 255 0 0
0.237950 0.222836 0.0 255 0 0
0.237325 0.224957 0.0 255 0 0
0.236945 0.226806 0.0 255 0 0
0.235571 0.228233 0.0 255 0 0
0.234210 0.229629 0.0 255 0 0
0.233595 0.231677 0.0 255 0 0
0.232920 0.233770 0.0 255 0 0
0.232205 0.235885 0.0 255 0 0
0.230844 0.237217 0.0 255 0 0
0.229430 0.238585 0.0 255 0 0
0.227985 0.239966 0.0 255 0 0
0.226601 0.241274 0.0 255 0 0
0.225843 0.243349 0.0 255 0 0
0.225327 0.245187 0.0 255 0 0
0.224514 0.247284 0.0 255 0 0
0.223684 0.249380 0.0 255 0 0
0.222934 0.251389 0.0 255 0 0
0.222361 0.253228 0.0 255 0 0
0.220828 0.254566 0.0 255 0 0
0.220588 0.257414 0.0 255 0 0
0.219775 0.259421 0.0 255 0 0
0.218845 0.261511 0.0 255 0 0
0.218202 0.263347 0.0 255 0 0
0.217241 0.265434 0.0 255 0 0
0.216288 0.267499 0.0 255 0 0
0.215370 0.269520 0.0 255 0 0
0.214358 0.271600 0.0 255 0 0
0.213643 0.273433 0.0 255 0 0
0.212624 0.275490 0.0 255 0 0
0.212249 0.278299 0.0 255 0 0
0.211166 0.280375 0.0 255 0 0
0.210390 0.282206 0.0 255 0 0
0.209895 0.285062 0.0 255 0 0
0.208840 0.287073 0.0 255 0 0
0.207686 0.289141 0.0 255 0 0
0.207428 0.291784 0.0 255 0 0
0.206237 0.293849 0.0 255 0 0
0.205711 0.296655 0.0 255 0 0
0.205361 0.299326 0.0 255 0 0
0.204138 0.301369 0.0 255 0 0
0.203426 0.304259 0.0 255 0 0
0.203039 0.306919 0.0 255 0 0
0.201817 0.308919 0.0 255 0 0
0.201604 0.312634 0.0 255 0 0
0.201686 0.316145 0.0 255 0 0
0.200930 0.318992 0.0 255 0 0
0.199528 0.321049 0.0 255 0 0
0.199003 0.323725 0.0 255 0 0
0.198631 0.327467 0.0 255 0 0
0.198539 0.331026 0.0 255 0 0
0.197173 0.333004 0.0 255 0 0
0.195158 0.334189 0.0 255 0 0
0.193635 0.336229 0.0 255 0 0
0.193473 0.339778 0.0 255 0 0
0.192528 0.342611 0.0 255 0 0
0.189334 0.346667 0.0 255 0 0
0.050786 0.130464 0.0 128 128 128
0.049997 0.130768 0.0 128 128 128
0.048464 0.131344 0.0 128 128 128
0.180415 0.373732 0.0 255 0 0
0.179877 0.377317 0.0 255 0 0
0.178553 0.380156 0.0 255 0 0
0.177513 0.383951 0.0 255 0 0
0.176879 0.387543 0.0 255 0 0
0.175392 0.390412 0.0 255 0 0
0.174357 0.394158 0.0 255 0 0
0.029587 0.118358 0.0 255 0 0
0.028409 0.117618 0.0 255 0 0
0.027380 0.116835 0.0 255 0 0
0.026685 0.116995 0.0 255 0 0
0.025572 0.116220 0.0 255 0 0
0.024869 0.116372 0.0 255 0 0
0.024177 0.116518 0.0 255 0 0
0.023507 0.116655 0.0 255 0 0
0.022813 0.116793 0.0 255 0 0
0.022107 0.116929 0.0 255 0 0
0.020998 0.116117 0.0 255 0 0
0.020341 0.116234 0.0 255 0 0
0.020063 0.117296 0.0 255 0 0
0.019355 0.117415 0.0 255 0 0
0.018656 0.117528 0.0 255 0 0
0.017980 0.117634 0.0 255 0 0
0.017269 0.117740 0.0 255 0 0
0.015534 0.118990 0.0 255 0 0
0.252756 0.973730 0.0 255 0 0
0.249323 0.984933 0.0 255 0 0
0.245092 0.992176 0.0 255 0 0
0.241649 0.999194 0.0 255 0 0
0.156254 0.713081 0.0 255 0 0
0.150763 0.708129 0.0 255 0 0
0.145133 0.705221 0.0 255 0 0
0.140480 0.704123 0.0 255 0 0
0.136292 0.704946 0.0 255 0 0
0.132603 0.707684 0.0 255 0 0
0.128326 0.708472 0.0 255 0 0
0.124662 0.711156 0.0 255 0 0
0.121451 0.713741 0.0 255 0 0
0.117529 0.716424 0.0 255 0 0
0.113823 0.721072 0.0 255 0 0
0.111231 0.985744 0.0 255 0 0
-0.009763 0.464898 0.0 255 0 0
-0.015939 0.446716 0.0 255 0 0
-0.018470 0.442615 0.0 255 0 0
-0.021288 0.438484 0.0 255 0 0
-0.023731 0.435354 0.0 255 0 0
-0.026115 0.433214 0.0 255 0 0
-0.028599 0.431052 0.0 255 0 0
-0.031459 0.429850 0.0 255 0 0
-0.033935 0.428659 0.0 255 0 0
-0.036239 0.430477 0.0 255 0 0
-0.038763 0.431261 0.0 255 0 0
-0.041272 0.430024 0.0 255 0 0
-0.043745 0.429779 0.0 255 0 0
-0.046513 0.431500 0.0 255 0 0
-0.049345 0.433199 0.0 255 0 0
-0.052073 0.434893 0.0 255 0 0
-0.054571 0.437611 0.0 255 0 0
-0.057300 0.438270 0.0 255 0 0
-0.060226 0.440906 0.0 255 0 0
-0.062930 0.443558 0.0 255 0 0
-0.065772 0.445167 0.0 128 128 128
-0.079309 0.469346 0.0 255 0 0
-0.081635 0.463871 0.0 255 0 0
-0.083539 0.458451 0.0 255 0 0
-0.085542 0.451976 0.0 255 0 0
-0.087268 0.444515 0.0 255 0 0
-0.088897 0.437051 0.0 255 0 0
-0.090304 0.430634 0.0 255 0 0
-0.092597 0.427077 0.0 255 0 0
-0.094699 0.424567 0.0 255 0 0
-0.096469 0.421091 0.0 255 0 0
-0.098184 0.415559 0.0 255 0 0
-0.099984 0.412043 0.0 255 0 0
-0.101817 0.407472 0.0 255 0 0
-0.102846 0.399990 0.0 255 0 0
-0.104401 0.394417 0.0 255 0 0
-0.105772 0.388872 0.0 255 0 0
-0.106935 0.384403 0.0 255 0 0
-0.108451 0.379820 0.0 255 0 0
-0.109585 0.375329 0.0 255 0 0
-0.111026 0.370732 0.0 255 0 0
-0.112667 0.367100 0.0 255 0 0
-0.113650 0.362607 0.0 255 0 0
-0.115200 0.358968 0.0 255 0 0
-0.116431 0.355415 0.0 255 0 0
-0.117577 0.350822 0.0 255 0 0
-0.119047 0.348212 0.0 255 0 0
-0.120424 0.344562 0.0 255 0 0
-0.121701 0.341991 0.0 255 0 0
-0.123440 0.339240 0.0 255 0 0
-0.124695 0.336648 0.0 255 0 0
-0.126020 0.334018 0.0 255 0 0
-0.127572 0.331286 0.0 255 0 0
-0.129174 0.329591 0.0 255 0 0
-0.130698 0.327913 0.0 255 0 0
-0.132300 0.326191 0.0 255 0 0
-0.134135 0.324359 0.0 255 0 0
-0.135286 0.321712 0.0 255 0 0
-0.136741 0.320009 0.0 255 0 0
-0.138273 0.318260 0.0 255 0 0
-0.139627 0.315483 0.0 255 0 0
-0.141090 0.313735 0.0 255 0 0
-0.142061 0.311099 0.0 255 0 0
-0.143754 0.309218 0.0 255 0 0
-0.144765 0.306536 0.0 255 0 0
-0.146152 0.304768 0.0 255 0 0
-0.147903 0.303922 0.0 255 0 0
-0.149736 0.303023 0.0 255 0 0
-0.151535 0.302128 0.0 255 0 0
-0.153270 0.301251 0.0 255 0 0
-0.155086 0.300320 0.0 255 0 0
-0.156319 0.298552 0.0 255 0 0
-0.158119 0.297602 0.0 255 0 0
-0.159829 0.296688 0.0 255 0 0
-0.160884 0.293839 0.0 255 0 0
-0.161505 0.290069 0.0 255 0 0
-0.162161 0.287409 0.0 255 0 0
-0.163397 0.285556 0.0 255 0 0
-0.164535 0.283747 0.0 255 0 0
-0.166219 0.282764 0.0 255 0 0
-0.167627 0.280767 0.0 255 0 0
-0.169320 0.279749 0.0 255 0 0
-0.170927 0.278771 0.0 255 0 0
-0.172814 0.278782 0.0 255 0 0
-0.174175 0.276753 0.0 255 0 0
-0.175844 0.275695 0.0 255 0 0
-0.177400 0.274696 0.0 255 0 0
-0.179315 0.274646 0.0 255 0 0
-0.180944 0.273575 0.0 255 0 0
-0.183150 0.273308 0.0 255 0 0
-0.185815 0.273923 0.0 255 0 0
-0.188309 0.274643 0.0 255 0 0
-0.191080 0.275161 0.0 255 0 0
-0.193572 0.275860 0.0 255 0 0
-0.197472 0.278003 0.0 255 0 0
-0.201744 0.281097 0.0 255 0 0
-0.210336 0.283492 0.0 255 0 0
-0.691984 0.888276 0.0 0 0 255
-0.693622 0.879369 0.0 0 0 255
-0.697337 0.873868 0.0 0 0 255
-0.702261 0.867344 0.0 0 0 255
-0.705971 0.861743 0.0 0 0 255
-0.709886 0.855924 0.0 0 0 255
-0.713430 0.850363 0.0 0 0 255
-0.718554 0.846038 0.0 0 0 255
-0.722106 0.840373 0.0 0 0 255
-0.727089 0.836066 0.0 0 0 255
-0.730803 0.830159 0.0 0 0 255
-0.734157 0.824518 0.0 0 0 255
-0.739124 0.820068 0.0 0 0 255
-0.753894 0.828278 0.0 0 0 255
-0.780322 0.847468 0.0 128 128 128
-0.808971 0.870005 0.0 255 0 0
-0.800445 0.800445 0.0 255 0 0
-0.806612 0.797078 0.0 255 0 0
-0.821634 0.793146 0.0 255 0 0
-1.415513 1.326621 0.0 128 128 128
-1.420186 1.315738 0.0 128 128 128
-1.423557 1.303221 0.0 128 128 128
-1.429918 1.293259 0.0 128 128 128
-1.437334 1.285012 0.0 128 128 128
-1.468930 1.297631 0.0 128 128 128
-2.085709 1.770738 0.0 0 0 255
-2.098925 1.761282 0.0 0 0 255
-2.112437 1.751327 0.0 0 0 255
-2.122474 1.739149 0.0 0 0 255
-2.136050 1.728813 0.0 0 0 255
-2.148918 1.719202 0.0 0 0 255
-2.162402 1.708670 0.0 0 0 255
-2.175838 1.698037 0.0 0 0 255
-2.188572 1.688149 0.0 0 0 255
-2.201912 1.677322 0.0 0 0 255
-2.217916 1.669439 0.0 0 0 255
-2.227801 1.656225 0.0 0 0 255
-2.240515 1.645750 0.0 0 0 255
-2.250256 1.632406 0.0 0 0 255
-2.259609 1.619434 0.0 0 0 255
-2.275881 1.610376 0.0 0 0 255
-2.285414 1.596818 0.0 0 0 255
-2.311022 1.595005 0.0 255 0 0
-2.337140 1.592281 0.0 255 0 0
-2.339473 1.574569 0.0 255 0 0
-2.345610 1.558195 0.0 0 0 255
-2.365015 1.550577 0.0 255 0 0
-2.383820 1.543697 0.0 255 0 0
-2.399840 1.533582 0.0 255 0 0
-2.415681 1.523556 0.0 255 0 0
-2.431196 1.513863 0.0 255 0 0
-2.447113 1.503337 0.0 255 0 0
-2.452157 1.487397 0.0 255 0 0
-2.461095 1.472561 0.0 255 0 0
-2.473390 1.459701 0.0 255 0 0
-2.481607 1.445687 0.0 255 0 0
-2.486826 1.428678 0.0 0 0 255
-2.495411 1.413630 0.0 0 0 255
-2.510348 1.403400 0.0 0 0 255
-2.518779 1.388210 0.0 0 0 255
-2.523209 1.371787 0.0 0 0 255
-2.534845 1.358653 0.0 0 0 255
-2.550079 1.347053 0.0 0 0 255
-2.561203 1.334460 0.0 0 0 255
-2.572776 1.320791 0.0 0 0 255
-2.584276 1.307031 0.0 0 0 255
-2.595208 1.294177 0.0 0 0 255
-2.678713 1.162281 0.0 128 128 128
-2.870184 1.049372 0.0 0 0 255
-2.884000 1.034717 0.0 0 0 255
-2.900339 1.024603 0.0 0 0 255
-2.913743 1.010523 0.0 0 0 255
-2.927272 0.995761 0.0 0 0 255
-2.940822 0.980596 0.0 0 0 255
-2.954017 0.966149 0.0 0 0 255
-2.959709 0.948572 0.0 0 0 255
-2.949852 0.926735 0.0 128 128 128
-2.943926 0.905372 0.0 128 128 128
-2.930865 0.879564 0.0 128 128 128
-2.916852 0.856491 0.0 128 128 128
-2.100529 0.583247 0.0 128 128 128
-2.076990 0.563220 0.0 128 128 128
-2.049211 0.543262 0.0 128 128 128
-2.040837 0.527872 0.0 128 128 128
-2.043840 0.516123 0.0 128 128 128
-2.050756 0.504921 0.0 128 128 128
-2.065437 0.495322 0.0 0 0 255
-2.083786 0.487274 0.0 0 0 255
-2.074989 0.472020 0.0 0 0 255
-2.050463 0.453432 0.0 0 0 255
-2.033443 0.437618 0.0 0 0 255
-2.008641 0.419601 0.0 0 0 255
-1.987925 0.401172 0.0 0 0 255
-1.968721 0.384935 0.0 0 0 255
-1.947287 0.369320 0.0 0 0 255
-1.927843 0.353585 0.0 0 0 255
-1.908281 0.338096 0.0 0 0 255
-1.890450 0.323918 0.0 0 0 255
-1.868693 0.308583 0.0 0 0 255
-1.850995 0.292732 0.0 0 0 255
-1.834934 0.278841 0.0 0 0 255
-1.814713 0.265278 0.0 0 0 255
-1.798456 0.251816 0.0 0 0 255
-1.784017 0.239338 0.0 0 0 255
-1.767554 0.226441 0.0 0 0 255
-1.751022 0.213581 0.0 0 0 255
-1.732567 0.199371 0.0 0 0 255
-1.715827 0.187120 0.0 0 0 255
-1.700960 0.175603 0.0 0 0 255
-1.682083 0.163391 0.0 0 0 255
-1.665055 0.152235 0.0 0 0 255
-1.653988 0.141154 0.0 0 0 255
-1.642848 0.130215 0.0 0 0 255
-1.629733 0.118016 0.0 0 0 255
-1.614410 0.107730 0.0 0 0 255
-1.601056 0.097131 0.0 0 0 255
-1.587635 0.086695 0.0 0 0 255
-1.574116 0.077028 0.0 0 0 255
-1.560566 0.066919 0.0 0 0 255
-1.544952 0.056905 0.0 0 0 255
-1.531310 0.045967 0.0 0 0 255
-1.523548 0.037110 0.0 0 0 255
-1.509747 0.027650 0.0 0 0 255
-1.495887 0.018358 0.0 0 0 255
-1.485967 0.009830 0.0 0 0 255
-1.474000 0.000849 0.0 0 0 255
-1.461979 -0.007849 0.0 0 0 255
-1.449910 -0.016125 0.0 0 0 255
-1.437761 -0.026193 0.0 0 0 255
-1.427590 -0.034224 0.0 0 0 255
-1.421364 -0.042530 0.0 0 0 255
-1.425079 -0.051257 0.0 0 0 255
-1.432753 -0.059787 0.0 0 0 255
-1.440363 -0.068684 0.0 0 0 255
-1.447999 -0.076147 0.0 0 0 255
-1.455499 -0.085359 0.0 0 0 255
-1.460972 -0.094116 0.0 0 0 255
-1.466372 -0.103220 0.0 0 0 255
-1.475692 -0.112838 0.0 0 0 255
-1.482992 -0.121979 0.0 0 0 255
-1.488217 -0.131320 0.0 0 0 255
-1.495362 -0.141058 0.0 0 0 255
-1.504476 -0.150655 0.0 0 0 255
-1.511509 -0.160440 0.0 0 0 255
-1.516475 -0.170234 0.0 0 0 255
-1.525419 -0.179981 0.0 0 0 255
-1.534428 -0.188806 0.0 0 0 255
-1.543196 -0.199202 0.0 0 0 255
-1.549893 -0.209592 0.0 0 0 255
-1.556583 -0.219622 0.0 0 0 255
-1.567122 -0.230619 0.0 0 0 255
-1.577562 -0.241900 0.0 0 0 255
-1.586044 -0.252388 0.0 0 0 255
-1.592384 -0.263269 0.0 0 0 255
-1.598649 -0.274236 0.0 0 0 255
-1.608888 -0.285370 0.0 0 0 255
-1.617283 -0.295182 0.0 0 0 255
-1.625326 -0.306644 0.0 0 0 255
-1.633259 -0.318370 0.0 0 0 255
-1.645158 -0.330360 0.0 0 0 255
-1.656843 -0.343128 0.0 0 0 255
-1.664519 -0.355217 0.0 0 0 255
-1.672251 -0.366769 0.0 0 0 255
-1.679760 -0.379065 0.0 0 0 255
-1.691115 -0.392206 0.0 0 0 255
-1.702451 -0.405167 0.0 0 0 255
-1.712110 -0.416323 0.0 0 0 255
-1.721206 -0.429563 0.0 0 0 255
-1.736019 -0.444413 0.0 0 0 255
-1.747020 -0.457775 0.0 0 0 255
-1.751949 -0.470394 0.0 0 0 255
-1.762621 -0.484511 0.0 0 0 255
-1.777133 -0.499513 0.0 0 0 255
-1.789461 -0.514658 0.0 0 0 255
-1.799801 -0.529236 0.0 0 0 255
-1.814383 -0.543368 0.0 0 0 255
-1.822758 -0.557127 0.0 0 0 255
-1.830814 -0.571704 0.0 0 0 255
-1.844532 -0.588045 0.0 0 0 255
-1.858237 -0.604212 0.0 0 0 255
-1.871637 -0.621095 0.0 0 0 255
-1.884963 -0.637977 0.0 0 0 255
-1.898278 -0.654679 0.0 0 0 255
-1.911270 -0.672105 0.0 0 0 255
-1.920420 -0.688177 0.0 0 0 255
-1.932068 -0.703028 0.0 0 0 255
-1.950498 -0.722467 0.0 0 0 255
-1.961068 -0.739884 0.0 0 0 255
-1.975305 -0.758700 0.0 0 0 255
-1.996990 -0.780236 0.0 0 0 255
-2.007108 -0.798198 0.0 0 0 255
-2.024575 -0.819116 0.0 0 0 255
-2.042026 -0.839878 0.0 0 0 255
-2.055448 -0.859720 0.0 0 0 255
-2.073232 -0.879326 0.0 0 0 255
-2.090007 -0.901137 0.0 0 0 255
-2.103108 -0.921169 0.0 0 0 255
-2.119432 -0.943614 0.0 0 0 255
-2.139296 -0.967737 0.0 0 0 255
-2.159138 -0.991714 0.0 0 0 255
-2.178579 -1.016370 0.0 0 0 255
-2.201618 -1.042581 0.0 0 0 255
-2.221435 -1.066079 0.0 0 0 255
-2.233246 -1.087597 0.0 0 0 255
-2.251735 -1.113478 0.0 0 0 255
-2.273678 -1.141195 0.0 0 0 255
-2.292027 -1.166960 0.0 0 0 255
-2.317033 -1.197088 0.0 0 0 255
-2.341643 -1.227780 0.0 0 0 255
-2.362796 -1.256252 0.0 0 0 255
-2.390495 -1.289259 0.0 0 0 255
-2.426170 -1.324159 0.0 0 0 255
-2.439253 -1.350181 0.0 0 0 255
-2.459356 -1.379844 0.0 0 0 255
-2.489354 -1.416197 0.0 0 0 255
-2.515401 -1.451197 0.0 0 0 255
-2.544997 -1.487849 0.0 0 0 255
-2.580842 -1.529463 0.0 0 0 255
-2.609726 -1.566929 0.0 0 0 255
-2.639182 -1.603266 0.0 0 0 255
-2.667388 -1.641482 0.0 0 0 255
-2.766374 -1.747329 0.0 0 0 255
-2.765875 -1.770477 0.0 0 0 255
-2.745234 -1.780358 0.0 255 0 0
-2.734947 -1.796121 0.0 255 0 0
-2.717390 -1.808172 0.0 255 0 0
-2.699959 -1.819823 0.0 255 0 0
-2.682838 -1.830815 0.0 255 0 0
-2.665326 -1.842182 0.0 255 0 0
-2.643420 -1.873482 0.0 255 0 0
-2.849964 -2.045426 0.0 128 128 128
-2.847381 -2.089843 0.0 128 128 128
-3.409717 -2.560376 0.0 128 128 128
-3.413297 -2.595447 0.0 0 0 255
-3.442100 -2.715033 0.0 128 128 128
-2.930000 -2.343630 0.0 255 0 0
-2.914763 -2.387882 0.0 128 128 128
-3.928700 -3.245694 0.0 0 0 255
-4.020772 -3.360207 0.0 0 0 255
-4.104235 -3.472266 0.0 0 0 255
-4.180404 -3.580256 0.0 0 0 255
-4.438985 -3.892638 0.0 0 0 255
-4.548176 -4.034909 0.0 0 0 255
-5.327993 -4.830875 0.0 128 128 128
-5.369443 -4.927883 0.0 128 128 128
-5.370329 -4.985895 0.0 128 128 128
-5.363916 -5.039643 0.0 128 128 128
-5.339173 -5.077465 0.0 0 0 255
-5.273685 -5.133989 0.0 128 128 128
-5.286947 -5.268727 0.0 128 128 128
-5.260657 -5.306248 0.0 128 128 128
-5.213247 -5.319282 0.0 128 128 128
-5.204438 -5.439173 0.0 128 128 128
-5.189555 -5.486458 0.0 128 128 128
-5.139710 -5.565892 0.0 128 128 128
-5.150754 -5.642635 0.0 128 128 128
-5.138563 -5.696907 0.0 128 128 128
-5.130669 -5.757707 0.0 128 128 128
-5.198497 -5.900688 0.0 128 128 128
-5.238111 -6.088942 0.0 128 128 128
-5.211041 -6.279383 0.0 128 128 128
-5.189420 -6.472522 0.0 128 128 128
-5.474501 -7.621633 0.0 0 0 255
-5.373529 -9.081293 0.0 128 128 128
-4.094936 -7.306769 0.0 128 128 128
-4.063037 -7.351988 0.0 128 128 128
-4.014726 -7.369372 0.0 128 128 128
-3.156866 -6.058912 0.0 0 0 255
-3.039829 -5.921298 0.0 0 0 255
-2.891817 -5.798948 0.0 128 128 128
-2.669169 -5.444964 0.0 0 0 255
-2.438357 -5.129992 0.0 0 0 255
-2.361793 -5.042277 0.0 0 0 255
-2.274349 -4.932946 0.0 0 0 255
-2.186396 -4.814833 0.0 0 0 255
-2.112034 -4.725493 0.0 0 0 255
-1.933852 -4.480471 0.0 0 0 255
-1.873646 -4.410523 0.0 0 0 255
-1.813469 -4.340386 0.0 0 0 255
-1.744665 -4.247659 0.0 0 0 255
-1.690232 -4.183451 0.0 0 0 255
-1.638759 -4.126508 0.0 0 0 255
-1.577172 -4.038988 0.0 0 0 255
-1.518748 -3.958662 0.0 0 0 255
-1.468014 -3.896644 0.0 0 0 255
-1.412378 -3.827739 0.0 0 0 255
-1.359267 -3.753459 0.0 0 0 255
-1.319244 -3.708327 0.0 0 0 255
-1.281011 -3.670907 0.0 0 0 255
-1.233949 -3.602532 0.0 0 0 255
-1.189586 -3.541551 0.0 0 0 255
-1.148160 -3.487881 0.0 0 0 255
-1.108415 -3.433523 0.0 0 0 255
-1.071104 -3.386656 0.0 0 0 255
-1.030318 -3.336541 0.0 0 0 255
-0.995109 -3.292926 0.0 0 0 255
-0.962529 -3.252569 0.0 0 0 255
-0.932054 -3.219810 0.0 0 0 255
-0.900435 -3.178936 0.0 0 0 255
-0.865213 -3.126490 0.0 0 0 255
-0.834091 -3.085240 0.0 0 0 255
-0.806112 -3.051314 0.0 0 0 255
-0.776974 -3.013446 0.0 0 0 255
-0.745463 -2.976056 0.0 0 0 255
-0.720168 -2.949348 0.0 0 0 255
-0.696704 -2.926203 0.0 0 0 255
-0.668462 -2.883532 0.0 0 0 255
-0.642234 -2.848497 0.0 0 0 255
-0.619836 -2.824795 0.0 0 0 255
-0.594692 -2.789309 0.0 0 0 255
-0.570521 -2.753516 0.0 0 0 255
-0.548368 -2.729459 0.0 0 0 255
-0.527545 -2.709113 0.0 0 0 255
-0.503190 -2.681191 0.0 0 0 255
-0.480607 -2.644685 0.0 0 0 255
-0.459783 -2.619962 0.0 0 0 255
-0.438856 -2.591098 0.0 0 0 255
-0.418781 -2.561999 0.0 0 0 255
-0.399818 -2.540734 0.0 0 0 255
-0.380277 -2.515417 0.0 0 0 255
-0.362350 -2.493813 0.0 0 0 255
-0.344761 -2.476114 0.0 0 0 255
-0.327338 -2.454267 0.0 0 0 255
-0.306918 -2.432716 0.0 0 0 255
-0.289096 -2.402670 0.0 0 0 255
-0.272537 -2.384476 0.0 0 0 255
-0.256659 -2.366121 0.0 0 0 255
-0.239917 -2.343752 0.0 0 0 255
-0.223682 -2.321248 0.0 0 0 255
-0.208883 -2.306561 0.0 0 0 255
-0.193936 -2.295823 0.0 0 0 255
-0.178747 -2.268970 0.0 0 0 255
-0.163298 -2.246072 0.0 0 0 255
-0.148878 -2.231038 0.0 0 0 255
-0.132519 -2.216041 0.0 0 0 255
-0.118057 -2.192824 0.0 0 0 255
-0.104288 -2.169495 0.0 0 0 255
-0.091053 -2.162084 0.0 0 0 255
-0.078033 -2.146582 0.0 0 0 255
-0.064459 -2.127024 0.0 0 0 255
-0.051330 -2.107375 0.0 0 0 255
-0.038909 -2.091638 0.0 0 0 255
-0.026073 -2.075836 0.0 0 0 255
-0.014220 -2.059951 0.0 0 0 255
0.000392 -2.042000 0.0 0 0 255
0.012067 -2.029964 0.0 0 0 255
0.024254 -2.023855 0.0 0 0 255
0.035772 -2.027684 0.0 0 0 255
0.048304 -2.039428 0.0 0 0 255
0.060860 -2.047096 0.0 0 0 255
0.071005 -2.050771 0.0 0 0 255
0.083088 -2.062327 0.0 0 0 255
0.096099 -2.073775 0.0 0 0 255
0.109043 -2.081145 0.0 0 0 255
0.121277 -2.088482 0.0 0 0 255
0.134655 -2.099687 0.0 0 0 255
0.147568 -2.110848 0.0 0 0 255
0.161021 -2.121899 0.0 0 0 255
0.174816 -2.132848 0.0 0 0 255
0.187782 -2.139776 0.0 0 0 255
0.201242 -2.146587 0.0 0 0 255
0.215397 -2.157273 0.0 0 0 255
0.228856 -2.167954 0.0 0 0 255
0.243723 -2.182433 0.0 0 0 255
0.258770 -2.196812 0.0 0 0 255
0.272663 -2.207222 0.0 0 0 255
0.285196 -2.217737 0.0 0 0 255
0.299442 -2.223931 0.0 0 0 255
0.314540 -2.233965 0.0 0 0 255
0.330072 -2.251939 0.0 0 0 255
0.346689 -2.269675 0.0 0 0 255
0.362276 -2.279390 0.0 0 0 255
0.377114 -2.289145 0.0 0 0 255
0.392279 -2.294712 0.0 0 0 255
0.409401 -2.312033 0.0 0 0 255
0.424854 -2.321443 0.0 0 0 255
0.441845 -2.334555 0.0 0 0 255
0.458333 -2.347679 0.0 0 0 255
0.475436 -2.360598 0.0 0 0 255
0.492940 -2.373349 0.0 0 0 255
0.510535 -2.390082 0.0 0 0 255
0.527180 -2.406944 0.0 0 0 255
0.544530 -2.419481 0.0 0 0 255
0.561841 -2.427838 0.0 0 0 255
0.579038 -2.436130 0.0 0 0 255
0.597779 -2.452190 0.0 0 0 255
0.618402 -2.471818 0.0 0 0 255
0.637338 -2.487654 0.0 0 0 255
0.656417 -2.499234 0.0 0 0 255
0.676699 -2.514537 0.0 0 0 255
0.698341 -2.537665 0.0 0 0 255
0.719076 -2.552652 0.0 0 0 255
0.737560 -2.559864 0.0 0 0 255
0.757921 -2.574764 0.0 0 0 255
0.781529 -2.596951 0.0 0 0 255
0.803587 -2.623697 0.0 0 0 255
0.826588 -2.641700 0.0 0 0 255
0.847598 -2.656035 0.0 0 0 255
0.869817 -2.669884 0.0 0 0 255
0.891981 -2.683646 0.0 0 0 255
0.916388 -2.704990 0.0 0 0 255
0.943162 -2.729650 0.0 0 0 255
0.967344 -2.746632 0.0 0 0 255
1.052639 -2.890281 0.0 0 0 255
1.081211 -2.913871 0.0 0 0 255
1.105577 -2.926104 0.0 0 0 255
1.129568 -2.938363 0.0 0 0 255
1.158959 -2.961286 0.0 0 0 255
1.191342 -2.991505 0.0 0 0 255
1.222042 -3.017971 0.0 0 0 255
1.255481 -3.047521 0.0 0 0 255
1.285940 -3.069518 0.0 0 0 255
1.319245 -3.098874 0.0 0 0 255
1.350352 -3.120345 0.0 0 0 255
1.378835 -3.134101 0.0 0 0 255
1.411528 -3.158985 0.0 0 0 255
1.450055 -3.203061 0.0 0 0 255
1.487765 -3.234216 0.0 0 0 255
1.520505 -3.254309 0.0 0 0 255
1.558054 -3.285264 0.0 0 0 255
1.601853 -3.326399 0.0 0 0 255
1.646518 -3.366969 0.0 0 0 255
1.680083 -3.386107 0.0 0 0 255
1.710971 -3.397498 0.0 0 0 255
1.755131 -3.433402 0.0 0 0 255
1.806152 -3.483617 0.0 0 0 255
1.815656 -3.451579 0.0 128 128 128
1.903823 -3.517877 0.0 0 0 255
1.922777 -3.502991 0.0 0 0 255
1.941956 -3.487817 0.0 0 0 255
1.955757 -3.466326 0.0 0 0 255
1.972681 -3.447508 0.0 0 0 255
1.989455 -3.428610 0.0 0 0 255
2.004763 -3.410405 0.0 0 0 255
2.017136 -3.384489 0.0 0 0 255
2.031015 -3.362166 0.0 0 0 255
2.041965 -3.336783 0.0 128 128 128
2.053650 -3.310791 0.0 128 128 128
2.064780 -3.284978 0.0 128 128 128
2.075051 -3.259549 0.0 128 128 128
2.094697 -3.246959 0.0 0 0 255
2.128342 -3.258501 0.0 0 0 255
2.183307 -3.298955 0.0 0 0 255
2.245521 -3.348829 0.0 0 0 255
2.311232 -3.410661 0.0 0 0 255
2.381264 -3.469416 0.0 0 0 255
2.446833 -3.521357 0.0 0 0 255
2.518709 -3.578474 0.0 0 0 255
2.594609 -3.642360 0.0 0 0 255
2.658684 -3.685015 0.0 0 0 255
2.718655 -3.720562 0.0 0 0 255
2.811002 -3.801612 0.0 0 0 255
2.910636 -3.887021 0.0 0 0 255
3.006826 -3.974828 0.0 0 0 255
3.103753 -4.051855 0.0 0 0 255
3.196420 -4.121839 0.0 0 0 255
3.304519 -4.159026 0.0 128 128 128
3.514696 -4.369963 0.0 0 0 255
3.631694 -4.408826 0.0 128 128 128
3.863196 -4.632574 0.0 0 0 255
4.026432 -4.725157 0.0 128 128 128
4.477362 -5.128556 0.0 0 0 255
4.628596 -5.240626 0.0 0 0 255
5.250157 -5.736029 0.0 0 0 255
5.510711 -5.810347 0.0 0 0 255
9.484350 -9.352513 0.0 0 0 255
8.619594 -5.674945 0.0 0 0 255
6.072194 -3.687178 0.0 0 0 255
6.136631 -3.578907 0.0 128 128 128
4.247769 -2.269431 0.0 0 0 255
3.992408 -2.102100 0.0 0 0 255
3.746089 -1.916789 0.0 128 128 128
3.664731 -1.847313 0.0 128 128 128
3.573283 -1.770817 0.0 0 0 255
3.537183 -1.726392 0.0 0 0 255
3.554101 -1.709824 0.0 0 0 255
3.571592 -1.691755 0.0 0 0 255
3.585211 -1.672184 0.0 0 0 255
3.598881 -1.652166 0.0 0 0 255
3.611971 -1.633084 0.0 0 0 255
3.628924 -1.614836 0.0 0 0 255
3.642274 -1.594496 0.0 0 0 255
3.658733 -1.576683 0.0 0 0 255
3.671724 -1.556467 0.0 0 0 255
3.681058 -1.534260 0.0 0 0 255
3.706170 -1.494095 0.0 128 128 128
2.627496 -1.035009 0.0 0 0 255
2.592279 -1.004235 0.0 0 0 255
2.543236 -0.964546 0.0 0 0 255
2.496269 -0.930343 0.0 0 0 255
2.460521 -0.900131 0.0 0 0 255
2.416889 -0.867914 0.0 0 0 255
2.387890 -0.842024 0.0 0 0 255
2.355050 -0.814741 0.0 0 0 255
2.322728 -0.785644 0.0 0 0 255
2.285593 -0.757977 0.0 0 0 255
2.251877 -0.732444 0.0 0 0 255
2.221891 -0.708113 0.0 0 0 255
2.187747 -0.683393 0.0 0 0 255
2.161234 -0.660809 0.0 0 0 255
2.135017 -0.636935 0.0 0 0 255
2.111886 -0.616391 0.0 0 0 255
2.080781 -0.594344 0.0 0 0 255
2.053512 -0.573161 0.0 0 0 255
2.026010 -0.552525 0.0 0 0 255
1.998234 -0.532619 0.0 0 0 255
1.972774 -0.511476 0.0 0 0 255
1.950620 -0.493177 0.0 0 0 255
1.928137 -0.475905 0.0 0 0 255
1.907640 -0.458642 0.0 0 0 255
1.885060 -0.441186 0.0 0 0 255
1.862176 -0.424734 0.0 0 0 255
1.845495 -0.407734 0.0 0 0 255
1.822503 -0.391123 0.0 0 0 255
1.803187 -0.376140 0.0 0 0 255
1.787748 -0.361847 0.0 0 0 255
1.768312 -0.346807 0.0 0 0 255
1.748665 -0.332519 0.0 0 0 255
1.728974 -0.318137 0.0 0 0 255
1.709437 -0.302527 0.0 0 0 255
1.693490 -0.289166 0.0 0 0 255
1.675391 -0.276170 0.0 0 0 255
1.657250 -0.263070 0.0 0 0 255
1.646874 -0.251719 0.0 0 0 255
1.628576 -0.238864 0.0 0 0 255
1.612337 -0.225282 0.0 0 0 255
1.597789 -0.213574 0.0 0 0 255
